<svg width="30" height="40" viewBox="0 0 30 40" fill="none" xmlns="http://www.w3.org/2000/svg">
<g clip-path="url(#clip0_1_11)">
<path d="M18.7886 17.5001H27.4995C28.5386 17.5001 29.4761 18.1485 29.7729 19.1173C30.2026 20.0938 29.9292 21.1954 29.1479 21.8829L9.14793 39.3829C8.26511 40.1485 6.97371 40.211 6.02996 39.5235C5.08543 38.836 4.74167 37.586 5.20183 36.5157L11.2104 22.5001H2.42917C1.45808 22.5001 0.525503 21.8516 0.159174 20.8829C-0.207154 19.9063 0.0693621 18.8048 0.853393 18.1173L20.851 0.618675C21.7339 -0.149919 23.0229 -0.208434 23.9682 0.477737C24.9135 1.16414 25.2573 2.4118 24.7964 3.48524L18.7886 17.5001Z" fill="white"/>
</g>
<defs>
<clipPath id="clip0_1_11">
<rect width="30" height="40" fill="white"/>
</clipPath>
</defs>
</svg>
